<svg width="30" height="30" viewBox="0 0 38 38" fill="none" xmlns="http://www.w3.org/2000/svg">
<rect x="0.5" y="0.5" width="37" height="37" rx="5.5" fill="white" stroke="#E6E7EB"/>
<path d="M25.3143 11L28.0003 13.6859L25.9527 15.7343L23.2667 13.0484L25.3143 11ZM15.4766 23.5234H18.1625L24.6867 16.9994L22.0007 14.3135L15.4766 20.8375V23.5234Z" fill="black"/>
<path d="M25.3251 26.2095H15.618C15.5948 26.2095 15.5706 26.2185 15.5473 26.2185C15.5178 26.2185 15.4882 26.2104 15.4578 26.2095H12.7906V13.6754H18.9209L20.7115 11.8848H12.7906C11.8031 11.8848 11 12.687 11 13.6754V26.2095C11 27.1979 11.8031 28.0001 12.7906 28.0001H25.3251C25.8 28.0001 26.2554 27.8114 26.5912 27.4756C26.927 27.1398 27.1157 26.6844 27.1157 26.2095V18.4491L25.3251 20.2397V26.2095Z" fill="black"/>
</svg>
