<svg width="30" height="30" viewBox="0 0 40 40" fill="none" xmlns="http://www.w3.org/2000/svg">
    <rect x="0.5" y="0.5" width="39" height="39" rx="5.5" fill="white" stroke="#E6E7EB" />
    <path
        d="M24.5792 22.9497H23.721L23.4168 22.6564C24.5182 21.3789 25.1236 19.7479 25.1224 18.0612C25.1224 16.6646 24.7082 15.2994 23.9323 14.1382C23.1564 12.977 22.0536 12.0719 20.7634 11.5375C19.4731 11.0031 18.0533 10.8632 16.6836 11.1357C15.3139 11.4081 14.0557 12.0807 13.0682 13.0682C12.0807 14.0557 11.4081 15.3139 11.1357 16.6836C10.8632 18.0533 11.0031 19.4731 11.5375 20.7634C12.0719 22.0536 12.977 23.1564 14.1382 23.9323C15.2994 24.7082 16.6646 25.1224 18.0612 25.1224C19.8102 25.1224 21.418 24.4814 22.6564 23.4168L22.9497 23.721V24.5792L28.3814 30L30 28.3814L24.5792 22.9497ZM18.0612 22.9497C15.3562 22.9497 13.1727 20.7662 13.1727 18.0612C13.1727 15.3562 15.3562 13.1727 18.0612 13.1727C20.7662 13.1727 22.9497 15.3562 22.9497 18.0612C22.9497 20.7662 20.7662 22.9497 18.0612 22.9497Z"
        fill="black" />
</svg>